<svg width="44" height="30" viewBox="0 0 44 30" fill="none" xmlns="http://www.w3.org/2000/svg">
<path d="M8.91159 1.16356L12.0773 10.0107C12.4644 11.0974 13.5064 11.8318 14.6625 11.8318H37.2494C37.5769 11.8318 37.815 12.1494 37.7158 12.4669L37.2692 13.9357C37.2047 14.1391 37.0162 14.283 36.8028 14.283H17.5752C16.9698 14.283 16.3644 14.4616 15.8782 14.8239C14.8858 15.5731 14.5335 16.8533 14.9354 17.9598L17.4958 25.0703C17.8878 26.157 18.9248 26.8864 20.076 26.8864H20.6963C21.0188 25.5913 22.1898 24.6337 23.5792 24.6337C24.9685 24.6337 26.1395 25.5913 26.4621 26.8814H30.9675C31.295 25.5913 32.4611 24.6337 33.8504 24.6337C35.2398 24.6337 36.4058 25.5864 36.7333 26.8665H37.944C38.2815 26.8665 38.5841 26.6433 38.6883 26.3207L39.78 22.8325C39.9388 22.3313 39.5616 21.8202 39.0357 21.8202L22.031 21.8401C21.8276 21.8401 21.639 21.7111 21.5696 21.5175L21.0188 19.9893C20.9047 19.6717 21.1428 19.3343 21.4802 19.3343H38.8571C40.0727 19.3343 41.1247 18.5553 41.4819 17.3942L43.6404 10.3382C43.8934 9.50958 43.7396 8.60155 43.2236 7.90191C42.7075 7.20723 41.8838 6.79043 41.0155 6.79043H17.0294C16.5778 6.79043 16.1759 6.5076 16.0221 6.08087L14.077 0.647513C13.9629 0.339871 13.6701 0.131468 13.3426 0.131468H9.64099C9.10014 0.131468 8.72303 0.667363 8.90662 1.17348L8.91159 1.16356Z" fill="#FF0000"/>
<path d="M31.6028 27.6059C31.6028 28.8513 32.6101 29.8586 33.8555 29.8586C35.101 29.8586 36.1083 28.8513 36.1083 27.6059C36.1083 26.3604 35.101 25.3531 33.8555 25.3531C32.6101 25.3531 31.6028 26.3604 31.6028 27.6059Z" fill="#023047"/>
<path d="M23.5843 29.8586C24.8284 29.8586 25.837 28.85 25.837 27.6059C25.837 26.3617 24.8284 25.3531 23.5843 25.3531C22.3401 25.3531 21.3315 26.3617 21.3315 27.6059C21.3315 28.85 22.3401 29.8586 23.5843 29.8586Z" fill="#023047"/>
<path d="M10.2316 29.8685H19.1086C19.58 29.8685 19.962 29.4865 19.962 29.0151C19.962 28.5437 19.58 28.1616 19.1086 28.1616H10.2316C9.76025 28.1616 9.37817 28.5437 9.37817 29.0151C9.37817 29.4865 9.76025 29.8685 10.2316 29.8685Z" fill="#023047"/>
<path d="M4.06879 29.8685H7.32384C7.79523 29.8685 8.1773 29.4865 8.1773 29.0151C8.1773 28.5437 7.79523 28.1616 7.32384 28.1616H4.06879C3.5974 28.1616 3.21533 28.5437 3.21533 29.0151C3.21533 29.4865 3.5974 29.8685 4.06879 29.8685Z" fill="#023047"/>
<path d="M0.853459 29.8685H1.16111C1.6325 29.8685 2.01457 29.4865 2.01457 29.0151C2.01457 28.5437 1.6325 28.1616 1.16111 28.1616H0.853459C0.382072 28.1616 0 28.5437 0 29.0151C0 29.4865 0.382072 29.8685 0.853459 29.8685Z" fill="#023047"/>
<path d="M13.5959 27.07H15.7593C16.2307 27.07 16.6128 26.6879 16.6128 26.2165C16.6128 25.7451 16.2307 25.3631 15.7593 25.3631H13.5959C13.1245 25.3631 12.7424 25.7451 12.7424 26.2165C12.7424 26.6879 13.1245 27.07 13.5959 27.07Z" fill="#023047"/>
<path d="M4.2226 27.07H10.6831C11.1545 27.07 11.5365 26.6879 11.5365 26.2165C11.5365 25.7451 11.1545 25.3631 10.6831 25.3631H4.2226C3.75121 25.3631 3.36914 25.7451 3.36914 26.2165C3.36914 26.6879 3.75121 27.07 4.2226 27.07Z" fill="#023047"/>
</svg>
