<svg width="32" height="53" viewBox="0 0 32 53" fill="none" xmlns="http://www.w3.org/2000/svg">
<g clip-path="url(#clip0_32_153)">
<path fill-rule="evenodd" clip-rule="evenodd" d="M35.2521 26.5C35.2521 26.1851 35.127 25.883 34.9043 25.6603C34.6816 25.4376 34.3796 25.3125 34.0646 25.3125H6.05625L13.5304 17.8408C13.6408 17.7303 13.7284 17.5993 13.7881 17.455C13.8479 17.3108 13.8786 17.1561 13.8786 17C13.8786 16.8439 13.8479 16.6893 13.7881 16.545C13.7284 16.4007 13.6408 16.2697 13.5304 16.1593C13.42 16.0488 13.2889 15.9613 13.1446 15.9015C13.0004 15.8418 12.8458 15.811 12.6896 15.811C12.5335 15.811 12.3789 15.8418 12.2346 15.9015C12.0904 15.9613 11.9593 16.0488 11.8489 16.1593L2.34887 25.6593C2.23829 25.7696 2.15055 25.9006 2.09068 26.0449C2.03082 26.1891 2 26.3438 2 26.5C2 26.6562 2.03082 26.8109 2.09068 26.9551C2.15055 27.0994 2.23829 27.2304 2.34887 27.3408L11.8489 36.8408C11.9593 36.9512 12.0904 37.0387 12.2346 37.0985C12.3789 37.1583 12.5335 37.189 12.6896 37.189C12.8458 37.189 13.0004 37.1583 13.1446 37.0985C13.2889 37.0387 13.42 36.9512 13.5304 36.8408C13.6408 36.7303 13.7284 36.5993 13.7881 36.455C13.8479 36.3108 13.8786 36.1561 13.8786 36C13.8786 35.8439 13.8479 35.6892 13.7881 35.545C13.7284 35.4007 13.6408 35.2697 13.5304 35.1593L6.05625 27.6875H34.0646C34.3796 27.6875 34.6816 27.5624 34.9043 27.3397C35.127 27.117 35.2521 26.8149 35.2521 26.5Z" fill="#FB8500"/>
</g>
<defs>
<clipPath id="clip0_32_153">
<rect width="32" height="51.378" fill="white" transform="translate(0 0.811005)"/>
</clipPath>
</defs>
</svg>
