<svg width="41" height="41" viewBox="0 0 41 41" fill="none" xmlns="http://www.w3.org/2000/svg">
<g clip-path="url(#clip0_293_2420)">
<path d="M20.5 40.5C25.8043 40.5 30.8914 38.3929 34.6421 34.6421C38.3929 30.8914 40.5 25.8043 40.5 20.5C40.5 15.1957 38.3929 10.1086 34.6421 6.35786C30.8914 2.60714 25.8043 0.5 20.5 0.5C15.1957 0.5 10.1086 2.60714 6.35786 6.35786C2.60714 10.1086 0.5 15.1957 0.5 20.5C0.5 25.8043 2.60714 30.8914 6.35786 34.6421C10.1086 38.3929 15.1957 40.5 20.5 40.5ZM11.75 21.75C11.4185 21.75 11.1005 21.6183 10.8661 21.3839C10.6317 21.1495 10.5 20.8315 10.5 20.5C10.5 20.1685 10.6317 19.8505 10.8661 19.6161C11.1005 19.3817 11.4185 19.25 11.75 19.25L26.2325 19.25L20.865 13.885C20.7488 13.7688 20.6566 13.6308 20.5937 13.479C20.5308 13.3271 20.4984 13.1644 20.4984 13C20.4984 12.8356 20.5308 12.6729 20.5937 12.521C20.6566 12.3692 20.7488 12.2312 20.865 12.115C20.9812 11.9988 21.1192 11.9066 21.271 11.8437C21.4229 11.7808 21.5856 11.7484 21.75 11.7484C21.9144 11.7484 22.0771 11.7808 22.229 11.8437C22.3808 11.9066 22.5188 11.9988 22.635 12.115L30.135 19.615C30.2514 19.7311 30.3438 19.8691 30.4068 20.0209C30.4698 20.1728 30.5022 20.3356 30.5022 20.5C30.5022 20.6644 30.4698 20.8272 30.4068 20.9791C30.3438 21.1309 30.2514 21.2689 30.135 21.385L22.635 28.885C22.4003 29.1197 22.0819 29.2516 21.75 29.2516C21.4181 29.2516 21.0997 29.1197 20.865 28.885C20.6303 28.6503 20.4984 28.3319 20.4984 28C20.4984 27.6681 20.6303 27.3497 20.865 27.115L26.2325 21.75L11.75 21.75Z" fill="white"/>
</g>
<defs>
<clipPath id="clip0_293_2420">
<rect width="40" height="40" fill="white" transform="matrix(-1 0 0 -1 40.5 40.5)"/>
</clipPath>
</defs>
</svg>
