<svg width="36" height="32" viewBox="0 0 36 32" fill="none" xmlns="http://www.w3.org/2000/svg">
<g clip-path="url(#clip0_8_4)">
<path d="M1.12524 1.375C1.12524 1.07663 1.24377 0.790484 1.45475 0.579505C1.66573 0.368527 1.95188 0.25 2.25024 0.25H5.62524C5.87619 0.250069 6.11991 0.334039 6.31764 0.488556C6.51537 0.643072 6.65577 0.859264 6.71649 1.10275L7.62775 4.75H33.7502C33.9211 4.75005 34.0898 4.78902 34.2433 4.86397C34.3969 4.93892 34.5314 5.04786 34.6366 5.18254C34.7418 5.31722 34.8149 5.47409 34.8504 5.64124C34.8859 5.8084 34.8829 5.98144 34.8415 6.14725L31.4665 19.6473C31.4058 19.8907 31.2654 20.1069 31.0676 20.2614C30.8699 20.416 30.6262 20.4999 30.3752 20.5H10.1252C9.8743 20.4999 9.63058 20.416 9.43285 20.2614C9.23512 20.1069 9.09472 19.8907 9.034 19.6473L4.74774 2.5H2.25024C1.95188 2.5 1.66573 2.38147 1.45475 2.17049C1.24377 1.95952 1.12524 1.67337 1.12524 1.375ZM8.19025 7L11.0027 18.25H29.4977L32.3102 7H8.19025ZM12.3752 25C11.7785 25 11.2062 25.2371 10.7843 25.659C10.3623 26.081 10.1252 26.6533 10.1252 27.25C10.1252 27.8467 10.3623 28.419 10.7843 28.841C11.2062 29.2629 11.7785 29.5 12.3752 29.5C12.972 29.5 13.5443 29.2629 13.9662 28.841C14.3882 28.419 14.6252 27.8467 14.6252 27.25C14.6252 26.6533 14.3882 26.081 13.9662 25.659C13.5443 25.2371 12.972 25 12.3752 25ZM7.87525 27.25C7.87525 26.0565 8.34935 24.9119 9.19326 24.068C10.0372 23.2241 11.1818 22.75 12.3752 22.75C13.5687 22.75 14.7133 23.2241 15.5572 24.068C16.4011 24.9119 16.8752 26.0565 16.8752 27.25C16.8752 28.4435 16.4011 29.5881 15.5572 30.432C14.7133 31.2759 13.5687 31.75 12.3752 31.75C11.1818 31.75 10.0372 31.2759 9.19326 30.432C8.34935 29.5881 7.87525 28.4435 7.87525 27.25ZM28.1252 25C27.5285 25 26.9562 25.2371 26.5343 25.659C26.1123 26.081 25.8752 26.6533 25.8752 27.25C25.8752 27.8467 26.1123 28.419 26.5343 28.841C26.9562 29.2629 27.5285 29.5 28.1252 29.5C28.722 29.5 29.2943 29.2629 29.7162 28.841C30.1382 28.419 30.3752 27.8467 30.3752 27.25C30.3752 26.6533 30.1382 26.081 29.7162 25.659C29.2943 25.2371 28.722 25 28.1252 25ZM23.6252 27.25C23.6252 26.0565 24.0994 24.9119 24.9433 24.068C25.7872 23.2241 26.9318 22.75 28.1252 22.75C29.3187 22.75 30.4633 23.2241 31.3072 24.068C32.1511 24.9119 32.6252 26.0565 32.6252 27.25C32.6252 28.4435 32.1511 29.5881 31.3072 30.432C30.4633 31.2759 29.3187 31.75 28.1252 31.75C26.9318 31.75 25.7872 31.2759 24.9433 30.432C24.0994 29.5881 23.6252 28.4435 23.6252 27.25Z" fill="#023047"/>
</g>
<defs>
<clipPath id="clip0_8_4">
<rect width="36" height="31.5" fill="white" transform="translate(0 0.25)"/>
</clipPath>
</defs>
</svg>
