<svg width="71" height="70" viewBox="0 0 71 70" fill="none" xmlns="http://www.w3.org/2000/svg">
<g clip-path="url(#clip0_42_174)">
<path d="M35.5 65.625C27.3777 65.625 19.5882 62.3984 13.8449 56.6551C8.10155 50.9118 4.875 43.1223 4.875 35C4.875 26.8777 8.10155 19.0882 13.8449 13.3449C19.5882 7.60155 27.3777 4.375 35.5 4.375C43.6223 4.375 51.4118 7.60155 57.1551 13.3449C62.8984 19.0882 66.125 26.8777 66.125 35C66.125 43.1223 62.8984 50.9118 57.1551 56.6551C51.4118 62.3984 43.6223 65.625 35.5 65.625ZM35.5 70C44.7826 70 53.685 66.3125 60.2487 59.7487C66.8125 53.185 70.5 44.2826 70.5 35C70.5 25.7174 66.8125 16.815 60.2487 10.2513C53.685 3.68749 44.7826 0 35.5 0C26.2174 0 17.315 3.68749 10.7513 10.2513C4.18749 16.815 0.5 25.7174 0.5 35C0.5 44.2826 4.18749 53.185 10.7513 59.7487C17.315 66.3125 26.2174 70 35.5 70Z" fill="#FB8500"/>
<path d="M48.4935 21.7438L48.406 21.84L33.2116 41.1994L24.0548 32.0381C23.4328 31.4585 22.6101 31.143 21.76 31.158C20.9099 31.173 20.0989 31.5174 19.4977 32.1185C18.8965 32.7197 18.5521 33.5308 18.5371 34.3808C18.5221 35.2309 18.8377 36.0536 19.4173 36.6756L30.9935 48.2563C31.3054 48.5675 31.6767 48.8128 32.0855 48.9775C32.4942 49.1422 32.9319 49.2228 33.3724 49.2146C33.813 49.2065 34.2474 49.1097 34.6497 48.93C35.052 48.7503 35.414 48.4914 35.7141 48.1688L53.1791 26.3375C53.7738 25.7133 54.099 24.8802 54.0843 24.0182C54.0696 23.1562 53.7163 22.3346 53.1006 21.731C52.485 21.1275 51.6566 20.7905 50.7945 20.7929C49.9324 20.7952 49.1058 21.1368 48.4935 21.7438Z" fill="#FB8500"/>
</g>
<defs>
<clipPath id="clip0_42_174">
<rect width="70" height="70" fill="white" transform="translate(0.5)"/>
</clipPath>
</defs>
</svg>
