<svg width="579" height="359" viewBox="0 0 579 359" fill="none" xmlns="http://www.w3.org/2000/svg">
<g clip-path="url(#clip0_504_604)">
<path d="M282.558 61.1821H281.141V22.4292C281.141 19.4837 280.561 16.5671 279.432 13.8459C278.303 11.1246 276.649 8.65207 274.563 6.56933C272.477 4.48659 270.001 2.83447 267.276 1.7073C264.551 0.580132 261.63 -9.21489e-06 258.681 1.0978e-10H176.461C173.511 -9.21489e-06 170.591 0.580132 167.866 1.7073C165.14 2.83447 162.664 4.48659 160.579 6.56933C158.493 8.65207 156.838 11.1246 155.71 13.8459C154.581 16.5671 154 19.4837 154 22.4292V235.031C154 237.976 154.581 240.893 155.71 243.614C156.839 246.335 158.493 248.808 160.579 250.89C162.664 252.973 165.14 254.625 167.866 255.752C170.591 256.88 173.511 257.46 176.461 257.46H258.681C261.63 257.46 264.551 256.88 267.276 255.752C270.001 254.625 272.477 252.973 274.563 250.89C276.649 248.808 278.303 246.335 279.432 243.614C280.561 240.893 281.141 237.976 281.141 235.031V88.767H282.558V61.1821Z" fill="#E6E6E6"/>
<path d="M259.587 5.83521H248.854C249.348 7.04353 249.536 8.35452 249.403 9.65268C249.27 10.9508 248.819 12.1963 248.09 13.2794C247.361 14.3625 246.376 15.25 245.223 15.8637C244.07 16.4773 242.783 16.7984 241.476 16.7985H194.374C193.067 16.7984 191.78 16.4773 190.627 15.8637C189.473 15.25 188.489 14.3625 187.76 13.2794C187.031 12.1963 186.58 10.9508 186.447 9.65268C186.313 8.35452 186.502 7.04353 186.995 5.83521H176.971C174.769 5.8352 172.587 6.26845 170.552 7.1102C168.517 7.95195 166.668 9.18574 165.111 10.7411C163.553 12.2965 162.318 14.1429 161.475 16.1751C160.632 18.2073 160.198 20.3854 160.198 22.585V234.875C160.198 237.074 160.632 239.252 161.475 241.284C162.318 243.317 163.553 245.163 165.111 246.718C166.668 248.274 168.517 249.508 170.552 250.349C172.587 251.191 174.769 251.624 176.971 251.624H259.587C261.79 251.624 263.971 251.191 266.006 250.349C268.041 249.508 269.89 248.274 271.448 246.718C273.005 245.163 274.241 243.317 275.084 241.284C275.927 239.252 276.36 237.074 276.36 234.875V22.585C276.36 20.3854 275.927 18.2073 275.084 16.1751C274.241 14.1429 273.005 12.2965 271.448 10.7411C269.89 9.18574 268.041 7.95195 266.006 7.1102C263.971 6.26845 261.79 5.8352 259.587 5.83521Z" fill="white"/>
<path d="M193.939 48.9915H189.006C188.833 48.9915 188.666 49.0603 188.544 49.1827C188.421 49.3052 188.352 49.4713 188.352 49.6445V51.8066C188.352 51.9798 188.421 52.1459 188.544 52.2683C188.666 52.3908 188.833 52.4596 189.006 52.4596H189.824V55.6991H193.122V52.4596H193.939C194.112 52.4596 194.279 52.3908 194.401 52.2683C194.524 52.1459 194.593 51.9798 194.593 51.8066V49.6445C194.593 49.4713 194.524 49.3052 194.401 49.1827C194.279 49.0603 194.112 48.9915 193.939 48.9915Z" fill="#E6E6E6"/>
<path d="M198.88 68.7786C195.859 64.3644 194.314 59.1087 194.468 53.7643C194.471 53.641 194.43 53.5205 194.354 53.4234C194.278 53.3262 194.171 53.2584 194.05 53.2313V52.2971H188.841V53.2183H188.769C188.627 53.2185 188.491 53.2749 188.391 53.3752C188.291 53.4754 188.235 53.6113 188.235 53.7528C188.235 53.7658 188.236 53.7788 188.237 53.7917C188.647 59.5048 187.261 64.6281 184.079 69.1618C183.896 69.4223 183.802 69.7351 183.812 70.0533L184.382 87.6491C184.396 88.0416 184.561 88.4136 184.842 88.6875C185.124 88.9615 185.501 89.1161 185.894 89.1193H197.678C198.075 89.116 198.456 88.9578 198.739 88.6784C199.021 88.3989 199.184 88.0203 199.191 87.6232L199.41 70.5391C199.417 69.912 199.232 69.2979 198.88 68.7786Z" fill="#E6E6E6"/>
<path d="M197.014 74.6233H186.758C186.606 74.6233 186.456 74.6561 186.318 74.7194C186.18 74.7827 186.057 74.8751 185.959 74.9901C185.86 75.1052 185.787 75.2403 185.745 75.386C185.704 75.5318 185.694 75.6849 185.717 75.8347L187.267 85.8948H196.167L198.049 75.8686C198.078 75.7167 198.072 75.5605 198.034 75.4109C197.995 75.2614 197.923 75.1222 197.825 75.0033C197.726 74.8844 197.602 74.7887 197.462 74.723C197.322 74.6573 197.169 74.6233 197.014 74.6233Z" fill="white"/>
<path d="M248.85 101.702H243.917C243.743 101.702 243.577 101.771 243.454 101.893C243.332 102.016 243.263 102.182 243.263 102.355V104.517C243.263 104.69 243.332 104.856 243.454 104.979C243.577 105.101 243.743 105.17 243.917 105.17H244.734V108.41H248.032V105.17H248.85C249.023 105.17 249.189 105.101 249.312 104.979C249.435 104.856 249.504 104.69 249.504 104.517V102.355C249.504 102.182 249.435 102.016 249.312 101.893C249.189 101.771 249.023 101.702 248.85 101.702Z" fill="#E6E6E6"/>
<path d="M253.79 121.489C250.769 117.075 249.225 111.819 249.378 106.475C249.381 106.351 249.341 106.231 249.265 106.134C249.189 106.037 249.081 105.969 248.961 105.942V105.008H243.751V105.929H243.68C243.609 105.929 243.54 105.943 243.475 105.97C243.41 105.997 243.351 106.036 243.302 106.086C243.252 106.135 243.213 106.194 243.186 106.259C243.159 106.324 243.146 106.393 243.146 106.463C243.146 106.476 243.146 106.489 243.147 106.502C243.558 112.215 242.172 117.339 238.99 121.872C238.806 122.133 238.713 122.446 238.723 122.764L239.293 140.36C239.306 140.752 239.471 141.124 239.753 141.398C240.035 141.672 240.412 141.827 240.805 141.83H252.588C252.986 141.826 253.367 141.668 253.649 141.389C253.932 141.109 254.094 140.731 254.101 140.334L254.321 123.25C254.327 122.622 254.142 122.008 253.79 121.489Z" fill="#E6E6E6"/>
<path d="M251.925 127.334H241.668C241.517 127.334 241.367 127.367 241.229 127.43C241.091 127.493 240.968 127.586 240.869 127.701C240.77 127.816 240.698 127.951 240.656 128.096C240.614 128.242 240.605 128.395 240.628 128.545L242.178 138.605H251.077L252.96 128.579C252.988 128.427 252.983 128.271 252.944 128.121C252.905 127.972 252.834 127.833 252.735 127.714C252.636 127.595 252.513 127.499 252.373 127.433C252.233 127.368 252.08 127.334 251.925 127.334Z" fill="white"/>
<path d="M187.004 176.219H184.664C184.582 176.219 184.503 176.252 184.445 176.31C184.387 176.368 184.354 176.447 184.354 176.529V177.554C184.354 177.636 184.387 177.715 184.445 177.773C184.503 177.831 184.582 177.864 184.664 177.864H185.052V179.401H186.617V177.864H187.004C187.087 177.864 187.165 177.831 187.224 177.773C187.282 177.715 187.314 177.636 187.314 177.554V176.529C187.314 176.447 187.282 176.368 187.224 176.31C187.165 176.252 187.087 176.219 187.004 176.219Z" fill="#E6E6E6"/>
<path d="M189.348 185.605C187.915 183.511 187.182 181.018 187.255 178.483C187.256 178.425 187.237 178.367 187.201 178.321C187.165 178.275 187.114 178.243 187.057 178.23V177.787H184.586V178.224H184.552C184.518 178.224 184.485 178.231 184.455 178.243C184.424 178.256 184.396 178.275 184.373 178.298C184.349 178.322 184.33 178.35 184.318 178.381C184.305 178.411 184.298 178.444 184.298 178.478C184.298 178.484 184.299 178.49 184.299 178.496C184.527 181.083 183.828 183.667 182.327 185.787C182.24 185.91 182.196 186.059 182.201 186.21L182.471 194.556C182.477 194.742 182.555 194.919 182.689 195.049C182.823 195.179 183.002 195.252 183.188 195.254H188.777C188.966 195.252 189.147 195.177 189.281 195.044C189.415 194.912 189.492 194.732 189.495 194.544L189.599 186.44C189.603 186.143 189.515 185.851 189.348 185.605Z" fill="#E6E6E6"/>
<path d="M188.543 188.673H183.21V191.336H188.543V188.673Z" fill="white"/>
<path d="M197.896 176.219H195.556C195.474 176.219 195.395 176.252 195.337 176.31C195.279 176.368 195.246 176.447 195.246 176.529V177.554C195.246 177.636 195.279 177.715 195.337 177.773C195.395 177.831 195.474 177.864 195.556 177.864H195.944V179.401H197.508V177.864H197.896C197.978 177.864 198.057 177.831 198.115 177.773C198.174 177.715 198.206 177.636 198.206 177.554V176.529C198.206 176.447 198.174 176.368 198.115 176.31C198.057 176.252 197.978 176.219 197.896 176.219Z" fill="#E6E6E6"/>
<path d="M200.24 185.605C198.807 183.511 198.074 181.018 198.147 178.483C198.148 178.425 198.129 178.367 198.093 178.321C198.057 178.275 198.006 178.243 197.949 178.23V177.787H195.478V178.224H195.444C195.41 178.224 195.377 178.231 195.347 178.243C195.316 178.256 195.288 178.275 195.264 178.298C195.241 178.322 195.222 178.35 195.21 178.381C195.197 178.411 195.19 178.444 195.19 178.478C195.19 178.484 195.191 178.49 195.191 178.496C195.419 181.083 194.72 183.667 193.219 185.787C193.132 185.91 193.088 186.059 193.092 186.21L193.363 194.556C193.369 194.742 193.447 194.919 193.581 195.049C193.715 195.179 193.893 195.252 194.08 195.254H199.669C199.858 195.252 200.039 195.177 200.173 195.044C200.307 194.912 200.384 194.732 200.387 194.544L200.491 186.44C200.494 186.143 200.407 185.851 200.24 185.605Z" fill="#E6E6E6"/>
<path d="M199.435 188.673H194.102V191.336H199.435V188.673Z" fill="white"/>
<path d="M208.788 176.219H206.448C206.366 176.219 206.287 176.252 206.229 176.31C206.171 176.368 206.138 176.447 206.138 176.529V177.554C206.138 177.636 206.171 177.715 206.229 177.773C206.287 177.831 206.366 177.864 206.448 177.864H206.836V179.401H208.4V177.864H208.788C208.87 177.864 208.949 177.831 209.007 177.773C209.066 177.715 209.098 177.636 209.098 177.554V176.529C209.098 176.447 209.066 176.368 209.007 176.31C208.949 176.252 208.87 176.219 208.788 176.219Z" fill="#E6E6E6"/>
<path d="M211.132 185.605C209.699 183.511 208.966 181.018 209.039 178.483C209.04 178.425 209.021 178.367 208.985 178.321C208.949 178.275 208.898 178.243 208.841 178.23V177.787H206.37V178.224H206.336C206.302 178.224 206.269 178.231 206.239 178.243C206.208 178.256 206.18 178.275 206.156 178.298C206.133 178.322 206.114 178.35 206.102 178.381C206.089 178.411 206.082 178.444 206.082 178.478C206.082 178.484 206.083 178.49 206.083 178.496C206.311 181.083 205.612 183.667 204.111 185.787C204.024 185.91 203.98 186.059 203.984 186.21L204.255 194.556C204.261 194.742 204.339 194.919 204.473 195.049C204.607 195.179 204.786 195.252 204.972 195.254H210.561C210.75 195.252 210.931 195.177 211.065 195.044C211.199 194.912 211.276 194.732 211.279 194.544L211.383 186.44C211.386 186.143 211.299 185.851 211.132 185.605Z" fill="#E6E6E6"/>
<path d="M210.327 188.673H204.994V191.336H210.327V188.673Z" fill="white"/>
<path d="M240.28 155.827H235.348C235.262 155.827 235.177 155.844 235.097 155.877C235.018 155.91 234.946 155.958 234.885 156.019C234.824 156.079 234.776 156.151 234.743 156.231C234.711 156.31 234.694 156.395 234.694 156.48V158.643C234.694 158.816 234.763 158.982 234.885 159.104C235.008 159.227 235.174 159.296 235.348 159.296H236.165V162.535H239.463V159.296H240.28C240.454 159.296 240.62 159.227 240.743 159.104C240.865 158.982 240.934 158.816 240.934 158.643V156.48C240.934 156.395 240.917 156.31 240.884 156.231C240.852 156.151 240.803 156.079 240.743 156.019C240.682 155.958 240.61 155.91 240.531 155.877C240.451 155.844 240.366 155.827 240.28 155.827Z" fill="#E6E6E6"/>
<path d="M245.221 175.615C242.2 171.2 240.656 165.945 240.809 160.6C240.812 160.477 240.772 160.356 240.696 160.259C240.62 160.162 240.512 160.094 240.392 160.067V159.133H235.182V160.054H235.11C235.04 160.054 234.971 160.068 234.906 160.095C234.841 160.122 234.782 160.161 234.732 160.211C234.683 160.261 234.644 160.32 234.617 160.384C234.59 160.449 234.576 160.519 234.576 160.589C234.576 160.602 234.577 160.615 234.578 160.628C234.988 166.341 233.602 171.464 230.42 175.998C230.237 176.258 230.144 176.571 230.154 176.889L230.723 194.485C230.737 194.878 230.902 195.25 231.184 195.523C231.465 195.797 231.842 195.952 232.236 195.955H244.019C244.417 195.952 244.797 195.794 245.08 195.514C245.363 195.235 245.525 194.856 245.532 194.459L245.752 177.375C245.758 176.748 245.573 176.134 245.221 175.615Z" fill="#E6E6E6"/>
<path d="M243.356 181.459H233.099C232.947 181.459 232.797 181.492 232.659 181.555C232.521 181.619 232.399 181.711 232.3 181.826C232.201 181.941 232.128 182.076 232.087 182.222C232.045 182.368 232.035 182.521 232.058 182.671L233.608 192.731H242.508L244.391 182.705C244.419 182.553 244.414 182.396 244.375 182.247C244.336 182.097 244.265 181.958 244.166 181.839C244.067 181.72 243.943 181.625 243.803 181.559C243.663 181.493 243.51 181.459 243.356 181.459Z" fill="white"/>
<path d="M242.973 91.3845H213.57C215.625 80.2858 215.152 66.8837 213.57 52.4707H242.973C241.433 66.8837 240.972 80.2858 242.973 91.3845Z" fill="#E6E6E6"/>
<path d="M228.449 77.9415C232.362 77.9415 235.534 74.7738 235.534 70.8662C235.534 66.9587 232.362 63.791 228.449 63.791C224.535 63.791 221.363 66.9587 221.363 70.8662C221.363 74.7738 224.535 77.9415 228.449 77.9415Z" fill="white"/>
<path d="M216.049 143.034H186.646C188.701 131.935 188.228 118.533 186.646 104.12H216.049C214.509 118.533 214.048 131.935 216.049 143.034Z" fill="#E6E6E6"/>
<path d="M201.525 129.591C205.438 129.591 208.61 126.423 208.61 122.515C208.61 118.608 205.438 115.44 201.525 115.44C197.612 115.44 194.439 118.608 194.439 122.515C194.439 126.423 197.612 129.591 201.525 129.591Z" fill="white"/>
<path d="M259.624 93.8608H230.22C232.276 82.7621 231.803 69.36 230.22 54.947H259.624C258.083 69.3601 257.623 82.7621 259.624 93.8608Z" fill="#E6E6E6"/>
<path d="M245.099 80.4178C249.012 80.4178 252.184 77.2501 252.184 73.3426C252.184 69.435 249.012 66.2673 245.099 66.2673C241.186 66.2673 238.014 69.435 238.014 73.3426C238.014 77.2501 241.186 80.4178 245.099 80.4178Z" fill="white"/>
<path d="M259.624 92.092H230.22C232.276 80.9933 231.803 67.5912 230.22 53.1782H259.624C258.083 67.5913 257.623 80.9933 259.624 92.092Z" fill="#E6E6E6"/>
<path d="M245.099 78.649C249.012 78.649 252.184 75.4813 252.184 71.5738C252.184 67.6662 249.012 64.4985 245.099 64.4985C241.186 64.4985 238.014 67.6662 238.014 71.5738C238.014 75.4813 241.186 78.649 245.099 78.649Z" fill="white"/>
<path d="M259.624 93.8608H230.22C232.276 82.7621 231.803 69.36 230.22 54.947H259.624C258.083 69.3601 257.623 82.7621 259.624 93.8608Z" fill="#E6E6E6"/>
<path d="M245.099 80.4178C249.012 80.4178 252.184 77.2501 252.184 73.3426C252.184 69.435 249.012 66.2673 245.099 66.2673C241.186 66.2673 238.014 69.435 238.014 73.3426C238.014 77.2501 241.186 80.4178 245.099 80.4178Z" fill="white"/>
<path d="M266.355 89.2617H169.995V99.8746H266.355V89.2617Z" fill="#E6E6E6"/>
<path d="M266.355 141.972H169.995V152.585H266.355V141.972Z" fill="#E6E6E6"/>
<path d="M266.355 194.683H169.995V205.295H266.355V194.683Z" fill="#E6E6E6"/>
<path d="M433.976 237.739L409.97 220.783C418.066 212.908 425.43 201.693 432.473 189.013L456.479 205.968C446.886 216.847 438.76 227.523 433.976 237.739Z" fill="#FCC5C9"/>
<path d="M433.982 219.687C437.896 219.687 441.068 216.519 441.068 212.611C441.068 208.704 437.896 205.536 433.982 205.536C430.069 205.536 426.897 208.704 426.897 212.611C426.897 216.519 430.069 219.687 433.982 219.687Z" fill="white"/>
<path d="M318.173 160.368H315.538C315.445 160.368 315.357 160.405 315.291 160.47C315.226 160.536 315.189 160.624 315.189 160.717V161.872C315.189 161.918 315.198 161.963 315.215 162.005C315.233 162.048 315.259 162.086 315.291 162.118C315.323 162.151 315.362 162.177 315.404 162.194C315.447 162.212 315.492 162.221 315.538 162.221H315.975V163.951H317.737V162.221H318.173C318.266 162.221 318.355 162.184 318.42 162.118C318.486 162.053 318.523 161.964 318.523 161.872V160.717C318.523 160.624 318.486 160.536 318.42 160.47C318.355 160.405 318.266 160.368 318.173 160.368Z" fill="#E6E6E6"/>
<path d="M320.813 170.938C319.199 168.58 318.374 165.773 318.456 162.918C318.457 162.852 318.436 162.787 318.395 162.735C318.354 162.684 318.297 162.647 318.233 162.633V162.134H315.45V162.626H315.411C315.374 162.626 315.337 162.633 315.302 162.648C315.267 162.662 315.236 162.683 315.209 162.71C315.183 162.736 315.162 162.768 315.148 162.802C315.133 162.837 315.126 162.874 315.126 162.911C315.126 162.918 315.126 162.925 315.127 162.932C315.384 165.845 314.597 168.755 312.906 171.143C312.808 171.282 312.758 171.449 312.763 171.619L313.068 181.019C313.075 181.229 313.163 181.428 313.314 181.574C313.464 181.72 313.665 181.803 313.876 181.805H320.17C320.383 181.803 320.586 181.718 320.737 181.569C320.888 181.42 320.975 181.218 320.979 181.005L321.096 171.879C321.1 171.544 321.001 171.216 320.813 170.938Z" fill="#FCC5C9"/>
<path opacity="0.2" d="M317.624 160.744C317.624 160.944 317.545 161.135 317.403 161.276C317.262 161.418 317.07 161.497 316.87 161.497C316.67 161.497 316.479 161.418 316.337 161.276C316.196 161.135 316.116 160.944 316.116 160.744" fill="black"/>
<path d="M319.587 172.75H314.273V176.287H319.587V172.75Z" fill="white"/>
<path d="M401.563 197.09H396.63C396.457 197.09 396.291 197.158 396.168 197.281C396.045 197.403 395.976 197.569 395.976 197.743V199.905C395.976 200.078 396.045 200.244 396.168 200.367C396.291 200.489 396.457 200.558 396.63 200.558H397.448V203.797H400.746V200.558H401.563C401.736 200.558 401.903 200.489 402.025 200.367C402.148 200.244 402.217 200.078 402.217 199.905V197.743C402.217 197.569 402.148 197.403 402.025 197.281C401.903 197.158 401.736 197.09 401.563 197.09Z" fill="#E6E6E6"/>
<path d="M406.504 216.877C403.483 212.463 401.938 207.207 402.092 201.862C402.095 201.739 402.054 201.619 401.978 201.522C401.902 201.424 401.795 201.357 401.674 201.329V200.395H396.465V201.316H396.393C396.323 201.317 396.253 201.33 396.188 201.357C396.124 201.384 396.065 201.424 396.015 201.473C395.966 201.523 395.926 201.582 395.9 201.647C395.873 201.711 395.859 201.781 395.859 201.851C395.859 201.864 395.86 201.877 395.861 201.89C396.271 207.603 394.885 212.726 391.703 217.26C391.52 217.52 391.426 217.833 391.436 218.151L392.006 235.747C392.02 236.14 392.185 236.512 392.466 236.786C392.748 237.06 393.125 237.214 393.518 237.217H405.302C405.699 237.214 406.08 237.056 406.363 236.777C406.645 236.497 406.808 236.118 406.815 235.721L407.034 218.637C407.041 218.01 406.856 217.396 406.504 216.877Z" fill="#FCC5C9"/>
<path opacity="0.2" d="M400.535 197.794C400.535 198.168 400.386 198.526 400.122 198.79C399.857 199.054 399.498 199.203 399.124 199.203C398.75 199.203 398.391 199.054 398.126 198.79C397.862 198.526 397.713 198.168 397.713 197.794" fill="black"/>
<path d="M404.638 222.721H394.382C394.23 222.721 394.08 222.754 393.942 222.818C393.804 222.881 393.682 222.973 393.583 223.088C393.484 223.203 393.411 223.338 393.369 223.484C393.328 223.63 393.318 223.783 393.341 223.933L394.891 233.993H403.791L405.673 223.967C405.702 223.815 405.696 223.659 405.658 223.509C405.619 223.359 405.547 223.22 405.449 223.101C405.35 222.983 405.226 222.887 405.086 222.821C404.946 222.755 404.793 222.721 404.638 222.721Z" fill="white"/>
<path d="M387.489 237.711H358.085C360.141 226.612 359.668 213.21 358.085 198.797H387.489C385.949 213.21 385.488 226.612 387.489 237.711Z" fill="#FCC5C9"/>
<path d="M372.964 224.268C376.877 224.268 380.05 221.1 380.05 217.193C380.05 213.285 376.877 210.117 372.964 210.117C369.051 210.117 365.879 213.285 365.879 217.193C365.879 221.1 369.051 224.268 372.964 224.268Z" fill="white"/>
<path d="M267.22 115.244L273.821 114.644L278.022 104.458L270.521 100.263L267.22 115.244Z" fill="#FFB8B8"/>
<path d="M327.8 143.21C328.019 142.663 328.105 142.072 328.051 141.486C327.997 140.899 327.804 140.334 327.489 139.837C327.173 139.339 326.743 138.924 326.235 138.625C325.727 138.326 325.155 138.151 324.566 138.116L314.318 137.506L312.809 142.517L323.359 145.41C324.241 145.652 325.181 145.562 326 145.156C326.819 144.75 327.459 144.057 327.8 143.21Z" fill="#FFB8B8"/>
<path d="M316.795 145.495L316.682 136.092L293.917 132.464L276.379 112.379C275.466 111.334 274.206 110.655 272.83 110.467C271.454 110.279 270.057 110.595 268.897 111.357C268.195 111.819 267.603 112.428 267.162 113.144C266.722 113.859 266.444 114.662 266.349 115.496C266.253 116.33 266.343 117.175 266.61 117.97C266.878 118.766 267.317 119.494 267.897 120.101L282.366 137.882L316.795 145.495Z" fill="#575A89"/>
<path d="M262.12 251.27H268.121L283.005 184.07L298.425 204.83L307.426 249.772H313.127L311.927 201.534L291.824 150H272.021C266.61 159.779 262.365 169.861 267.221 180.261L262.12 251.27Z" fill="#2F2E41"/>
<path d="M303.748 255.352C303.681 255.564 303.661 255.788 303.688 256.008C303.715 256.229 303.789 256.441 303.904 256.631C304.02 256.82 304.174 256.983 304.358 257.109C304.541 257.234 304.75 257.319 304.969 257.358L319.653 259.96C320.233 260.066 320.832 259.957 321.337 259.652C321.842 259.347 322.218 258.869 322.394 258.307C322.565 257.769 322.541 257.189 322.326 256.668C322.111 256.146 321.719 255.717 321.219 255.456C317.991 253.8 315.212 251.388 313.121 248.425C311.507 249.926 309.704 249.785 307.788 248.679L305.756 248.932L303.748 255.352Z" fill="#2F2E41"/>
<path d="M259.341 255.352C259.275 255.564 259.255 255.788 259.282 256.008C259.309 256.229 259.382 256.441 259.498 256.631C259.613 256.82 259.768 256.983 259.952 257.109C260.135 257.234 260.343 257.319 260.562 257.358L275.247 259.96C275.827 260.066 276.426 259.957 276.931 259.652C277.436 259.347 277.811 258.869 277.987 258.307C278.159 257.769 278.135 257.189 277.92 256.668C277.705 256.146 277.313 255.717 276.813 255.456C273.584 253.8 270.806 251.388 268.715 248.425C267.101 249.926 265.297 249.785 263.382 248.679L261.35 248.932L259.341 255.352Z" fill="#2F2E41"/>
<path d="M278.172 108.203C282.812 108.203 286.573 104.447 286.573 99.8136C286.573 95.1803 282.812 91.4243 278.172 91.4243C273.532 91.4243 269.771 95.1803 269.771 99.8136C269.771 104.447 273.532 108.203 278.172 108.203Z" fill="#FFB8B8"/>
<path d="M270.671 152.247L292.574 151.647L286.142 131.431C290.139 125.032 286.116 118.639 280.422 112.248L275.922 109.252L268.721 108.652C265.603 111.984 263.897 116.391 263.96 120.95C264.103 130.713 265.834 141.341 270.671 152.247Z" fill="#575A89"/>
<path d="M320.994 165.854C321.411 165.438 321.724 164.929 321.905 164.368C322.086 163.808 322.131 163.212 322.037 162.631C321.943 162.05 321.711 161.499 321.362 161.025C321.013 160.55 320.556 160.165 320.028 159.902L310.846 155.314L307.485 159.329L316.045 166.133C316.76 166.702 317.66 166.988 318.573 166.936C319.486 166.885 320.348 166.5 320.994 165.854Z" fill="#FFB8B8"/>
<path d="M309.976 163.632L313.577 154.943L294.076 142.665L285.865 117.31C285.438 115.991 284.546 114.871 283.356 114.158C282.165 113.445 280.756 113.187 279.389 113.431C278.562 113.58 277.777 113.908 277.09 114.392C276.404 114.877 275.832 115.506 275.416 116.235C275 116.964 274.749 117.776 274.681 118.613C274.614 119.45 274.731 120.291 275.025 121.078L281.322 143.108L309.976 163.632Z" fill="#575A89"/>
<path d="M264.37 96.5177C264.37 99.782 266.493 104.837 269.171 107.004C270.972 108.462 273.353 108.401 274.271 106.405C275.213 104.358 278.459 99.5451 284.173 96.5177C291.789 92.482 281.472 85.5775 274.271 86.6303C268.861 87.4214 264.37 91.057 264.37 96.5177Z" fill="#2F2E41"/>
<path d="M269.471 92.0235C272.785 92.0235 275.472 89.3407 275.472 86.0312C275.472 82.7217 272.785 80.0388 269.471 80.0388C266.157 80.0388 263.47 82.7217 263.47 86.0312C263.47 89.3407 266.157 92.0235 269.471 92.0235Z" fill="#2F2E41"/>
<path d="M276.372 83.9338C276.371 82.423 275.799 80.9684 274.769 79.8613C273.74 78.7542 272.33 78.0765 270.821 77.9641C270.97 77.953 271.119 77.9414 271.271 77.9414C272.863 77.9414 274.389 78.5727 275.514 79.6965C276.64 80.8203 277.272 82.3445 277.272 83.9338C277.272 85.523 276.64 87.0472 275.514 88.171C274.389 89.2948 272.863 89.9261 271.271 89.9261C271.119 89.9261 270.97 89.9145 270.821 89.9034C272.33 89.791 273.74 89.1133 274.769 88.0062C275.799 86.8992 276.371 85.4445 276.372 83.9338Z" fill="#2F2E41"/>
<path d="M278.322 102.81C279.068 102.81 279.672 102.005 279.672 101.012C279.672 100.019 279.068 99.2144 278.322 99.2144C277.576 99.2144 276.972 100.019 276.972 101.012C276.972 102.005 277.576 102.81 278.322 102.81Z" fill="#FFB8B8"/>
<path d="M448.345 240.281H354.93L335.149 146.901H318.267V142.711H338.55L358.331 236.091H448.345V240.281Z" fill="#3F3D56"/>
<path d="M368.62 257.34C373.586 257.34 377.611 253.321 377.611 248.362C377.611 243.403 373.586 239.383 368.62 239.383C363.654 239.383 359.628 243.403 359.628 248.362C359.628 253.321 363.654 257.34 368.62 257.34Z" fill="#3F3D56"/>
<path d="M435.757 257.34C440.723 257.34 444.748 253.321 444.748 248.362C444.748 243.403 440.723 239.383 435.757 239.383C430.791 239.383 426.765 243.403 426.765 248.362C426.765 253.321 430.791 257.34 435.757 257.34Z" fill="#3F3D56"/>
<path d="M446.642 238.307H355.755L339.719 159.172H461.691C462.313 159.172 462.928 159.306 463.493 159.566C464.059 159.826 464.561 160.206 464.965 160.678C465.37 161.15 465.667 161.705 465.837 162.303C466.006 162.901 466.044 163.528 465.948 164.142L450.898 234.673C450.743 235.687 450.227 236.613 449.446 237.28C448.665 237.947 447.67 238.312 446.642 238.307ZM356.742 237.11H446.642C447.384 237.113 448.102 236.85 448.666 236.369C449.23 235.887 449.601 235.219 449.713 234.487L464.763 163.956C464.833 163.513 464.805 163.06 464.683 162.628C464.561 162.197 464.346 161.797 464.054 161.456C463.762 161.115 463.4 160.841 462.992 160.654C462.584 160.466 462.14 160.369 461.691 160.369H341.174L356.742 237.11Z" fill="#3F3D56"/>
<path d="M373.424 238.054L362.922 159.868L364.104 159.673L374.606 237.859L373.424 238.054Z" fill="#3F3D56"/>
<path d="M431.818 237.454L430.634 237.262L440.829 159.675L442.013 159.866L431.818 237.454Z" fill="#3F3D56"/>
<path d="M403.996 159.77H402.797V237.957H403.996V159.77Z" fill="#3F3D56"/>
<path d="M345.843 180.721L345.84 181.918L461.889 182.199L461.892 181.002L345.843 180.721Z" fill="#3F3D56"/>
<path d="M453.703 217.703L351.751 218.399L351.759 219.596L453.711 218.9L453.703 217.703Z" fill="#3F3D56"/>
<path d="M320.065 147.799C323.707 147.799 326.659 146.191 326.659 144.207C326.659 142.223 323.707 140.615 320.065 140.615C316.424 140.615 313.471 142.223 313.471 144.207C313.471 146.191 316.424 147.799 320.065 147.799Z" fill="#3F3D56"/>
</g>
<path d="M36.4885 330H26.8885V314.512L10.1845 287.12H21.0645L27.7845 298.384L31.4965 304.72H32.1365L35.7845 298.384L42.5045 287.12H53.1925L36.4885 314.512V330ZM65.804 330.64C55.436 330.64 49.292 324.112 49.292 313.936C49.292 303.696 55.436 297.168 65.804 297.168C76.108 297.168 82.124 303.696 82.124 313.936C82.124 324.112 76.108 330.64 65.804 330.64ZM65.804 322.192C70.988 322.192 72.78 320.144 72.78 313.936C72.78 307.664 70.988 305.616 65.804 305.616C60.556 305.616 58.764 307.664 58.764 313.936C58.764 320.144 60.556 322.192 65.804 322.192ZM98.2825 330.64C89.8345 330.64 86.3145 325.072 86.3145 318.224V297.808H95.8505V316.304C95.8505 320.784 97.3865 322.384 102.187 322.384C106.795 322.384 108.779 320.912 108.779 316.048V297.808H118.315V330H109.419V324.368H109.099C107.307 328.08 103.915 330.64 98.2825 330.64ZM133.73 330H124.194V297.808H133.09V302.992H133.474C135.074 299.728 137.954 297.168 142.498 297.168C149.218 297.168 151.714 302.16 151.714 308.624V311.568H142.178V309.84C142.178 306.384 141.09 305.296 138.082 305.296C135.138 305.296 133.73 306.32 133.73 309.84V330ZM187.592 330.64C174.728 330.64 167.048 321.936 167.048 308.56C167.048 295.184 174.728 286.48 187.592 286.48C200.264 286.48 207.112 293.136 207.112 303.76V304.336H196.872V304.016C196.872 297.872 194.312 295.76 187.528 295.76C180.296 295.76 177.288 298.384 177.288 308.56C177.288 318.736 180.296 321.36 187.528 321.36C194.312 321.36 196.872 319.248 196.872 313.104V312.784H207.112V313.36C207.112 323.984 200.264 330.64 187.592 330.64ZM220.903 330.64C215.207 330.64 210.791 327.632 210.791 321.808C210.791 316.816 214.375 313.744 221.031 312.72L232.039 311.056V310.032C232.039 306.256 229.991 305.552 226.215 305.552C222.311 305.552 220.775 306.64 220.775 309.904V310.608H211.623V309.904C211.623 302.224 217.575 297.168 226.663 297.168C236.135 297.168 241.127 302.352 241.127 310.928V330H232.231V325.648H231.847C230.119 328.016 226.855 330.64 220.903 330.64ZM219.943 321.04C219.943 322.768 221.287 323.344 224.103 323.344C228.007 323.344 232.039 322.32 232.039 317.328L222.823 318.736C220.839 319.056 219.943 319.696 219.943 321.04ZM256.355 330H246.819V297.808H255.715V302.992H256.099C257.699 299.728 260.579 297.168 265.123 297.168C271.843 297.168 274.339 302.16 274.339 308.624V311.568H264.803V309.84C264.803 306.384 263.715 305.296 260.707 305.296C257.763 305.296 256.355 306.32 256.355 309.84V330ZM293.542 330.128C285.158 330.128 281.126 327.056 281.126 319.44V305.744H276.006V297.808H281.382L283.174 290.32H290.726V297.808H299.814V305.744H290.726V318.352C290.726 321.168 291.686 321.488 295.846 321.488H299.814V329.488C298.278 329.808 295.782 330.128 293.542 330.128ZM325.531 294.16H316.123L315.995 287.12H325.531V294.16ZM325.723 330H316.123V297.808H325.723V330ZM345.088 330.64C334.976 330.64 330.048 326.864 330.048 319.056V318.864H339.2V320.208C339.2 322.576 340.608 323.088 345.28 323.088C349.184 323.088 349.824 322.512 349.824 320.912C349.824 319.184 348.928 318.8 344.64 318.032L339.776 317.136C333.44 315.984 329.984 313.296 329.984 307.344C329.984 301.392 334.848 297.168 344 297.168C351.872 297.168 357.888 300.88 357.888 308.112V309.008H348.736V308.112C348.736 306 347.84 304.848 343.744 304.848C339.904 304.848 339.008 305.68 339.008 307.216C339.008 308.752 339.584 309.2 343.424 309.968L349.312 311.184C356.096 312.464 358.912 315.536 358.912 320.784C358.912 326.8 353.984 330.64 345.088 330.64ZM408.212 330H375.508V287.12H408.212V295.76H385.108V304.144H407.252V312.72H385.108V321.36H408.212V330ZM423.105 330H413.569V297.808H422.465V303.44H422.849C424.577 299.792 427.905 297.168 433.409 297.168C438.913 297.168 442.241 299.664 443.841 303.44H444.161C445.953 299.92 449.153 297.168 455.105 297.168C463.425 297.168 466.817 302.736 466.817 309.584V330H457.217V311.504C457.217 307.024 455.873 305.424 451.201 305.424C446.849 305.424 444.993 306.832 444.993 311.504V330H435.393V311.504C435.393 307.024 433.985 305.424 429.377 305.424C425.025 305.424 423.105 306.832 423.105 311.376V330ZM481.531 340.752H471.931V297.808H480.827V302.544H481.147C482.875 299.088 486.587 297.168 491.387 297.168C500.475 297.168 505.211 303.76 505.211 313.936C505.211 324.048 500.283 330.64 491.579 330.64C486.458 330.64 483.323 328.528 481.851 325.776H481.531V340.752ZM481.531 316.496C481.531 320.848 484.027 322.448 488.571 322.448C494.139 322.448 495.611 319.76 495.611 313.936C495.611 308.048 494.139 305.36 488.571 305.36C484.027 305.36 481.531 306.96 481.531 311.312V316.496ZM524.667 330.128C516.283 330.128 512.251 327.056 512.251 319.44V305.744H507.131V297.808H512.507L514.299 290.32H521.851V297.808H530.939V305.744H521.851V318.352C521.851 321.168 522.811 321.488 526.971 321.488H530.939V329.488C529.403 329.808 526.907 330.128 524.667 330.128ZM541.289 340.88C539.113 340.88 536.745 340.496 535.401 340.176V332.24H540.777C543.209 332.24 544.105 331.92 545.065 329.872L545.641 328.656L532.137 297.808H542.825L548.073 311.248L550.377 317.456H551.081L553.065 311.248L557.609 297.808H568.297L553.961 332.24C551.209 338.832 547.625 340.88 541.289 340.88Z" fill="#FBAEB4"/>
<defs>
<clipPath id="clip0_504_604">
<rect width="312" height="260" fill="white" transform="translate(154)"/>
</clipPath>
</defs>
</svg>
