<svg width="33" height="34" viewBox="0 0 33 34" fill="none" xmlns="http://www.w3.org/2000/svg">
<g clip-path="url(#clip0_71_1052)">
<path d="M33.0022 17.1012C33.0022 7.9313 25.6143 0.498047 16.5022 0.498047C7.38592 0.500109 -0.00195312 7.9313 -0.00195312 17.1032C-0.00195312 25.3883 6.03292 32.2564 13.9199 33.5022V21.9006H9.73305V17.1032H13.924V13.4423C13.924 9.28223 16.3887 6.98461 20.1569 6.98461C21.9637 6.98461 23.8509 7.30842 23.8509 7.30842V11.3922H21.7698C19.7217 11.3922 19.0824 12.673 19.0824 13.9868V17.1012H23.657L22.9269 21.8985H19.0803V33.5001C26.9673 32.2544 33.0022 25.3862 33.0022 17.1012Z" fill="#023047"/>
</g>
<defs>
<clipPath id="clip0_71_1052">
<rect width="33.0041" height="33.0041" fill="white" transform="translate(-0.00195312 0.498047)"/>
</clipPath>
</defs>
</svg>
