<svg width="23" height="18" viewBox="0 0 23 18" fill="none" xmlns="http://www.w3.org/2000/svg">
<path d="M23 16.2857C23 15.9637 22.899 15.6548 22.7193 15.4271C22.5396 15.1994 22.2958 15.0714 22.0417 15.0714H16.2917C16.0375 15.0714 15.7937 15.1994 15.614 15.4271C15.4343 15.6548 15.3333 15.9637 15.3333 16.2857C15.3333 16.6078 15.4343 16.9166 15.614 17.1443C15.7937 17.3721 16.0375 17.5 16.2917 17.5H22.0417C22.2958 17.5 22.5396 17.3721 22.7193 17.1443C22.899 16.9166 23 16.6078 23 16.2857ZM23 9C23 8.67795 22.899 8.36909 22.7193 8.14137C22.5396 7.91365 22.2958 7.78571 22.0417 7.78571H8.625C8.37083 7.78571 8.12708 7.91365 7.94736 8.14137C7.76763 8.36909 7.66667 8.67795 7.66667 9C7.66667 9.32205 7.76763 9.63091 7.94736 9.85863C8.12708 10.0864 8.37083 10.2143 8.625 10.2143H22.0417C22.2958 10.2143 22.5396 10.0864 22.7193 9.85863C22.899 9.63091 23 9.32205 23 9ZM23 1.71429C23 1.39224 22.899 1.08338 22.7193 0.855656C22.5396 0.627934 22.2958 0.5 22.0417 0.5H0.958333C0.704167 0.5 0.460412 0.627934 0.28069 0.855656C0.100967 1.08338 0 1.39224 0 1.71429C0 2.03633 0.100967 2.34519 0.28069 2.57292C0.460412 2.80064 0.704167 2.92857 0.958333 2.92857H22.0417C22.2958 2.92857 22.5396 2.80064 22.7193 2.57292C22.899 2.34519 23 2.03633 23 1.71429Z" fill="white"/>
</svg>
