<svg width="33" height="34" viewBox="0 0 33 34" fill="none" xmlns="http://www.w3.org/2000/svg">
<g filter="url(#filter0_b_71_1054)">
<rect x="0.00219727" y="0.501953" width="33" height="33" rx="8" fill="#023047"/>
<path d="M17.1527 14.065C16.2809 14.065 15.4447 14.4113 14.8282 15.0278C14.2117 15.6443 13.8654 16.4805 13.8654 17.3523C13.8654 18.2242 14.2117 19.0603 14.8282 19.6768C15.4447 20.2933 16.2809 20.6397 17.1527 20.6397C18.0246 20.6397 18.8607 20.2933 19.4772 19.6768C20.0937 19.0603 20.4401 18.2242 20.4401 17.3523C20.4401 16.4805 20.0937 15.6443 19.4772 15.0278C18.8607 14.4113 18.0246 14.065 17.1527 14.065ZM17.1527 11.8734C18.6058 11.8734 19.9994 12.4507 21.0269 13.4782C22.0544 14.5057 22.6316 15.8992 22.6316 17.3523C22.6316 18.8054 22.0544 20.199 21.0269 21.2265C19.9994 22.254 18.6058 22.8312 17.1527 22.8312C15.6996 22.8312 14.3061 22.254 13.2786 21.2265C12.2511 20.199 11.6738 18.8054 11.6738 17.3523C11.6738 15.8992 12.2511 14.5057 13.2786 13.4782C14.3061 12.4507 15.6996 11.8734 17.1527 11.8734ZM24.2753 11.5995C24.2753 11.9628 24.131 12.3112 23.8741 12.568C23.6172 12.8249 23.2689 12.9692 22.9056 12.9692C22.5423 12.9692 22.1939 12.8249 21.937 12.568C21.6802 12.3112 21.5359 11.9628 21.5359 11.5995C21.5359 11.2362 21.6802 10.8878 21.937 10.6309C22.1939 10.3741 22.5423 10.2298 22.9056 10.2298C23.2689 10.2298 23.6172 10.3741 23.8741 10.6309C24.131 10.8878 24.2753 11.2362 24.2753 11.5995ZM17.1527 8.58609C14.4418 8.58609 13.9991 8.59376 12.7378 8.64965C11.8788 8.69019 11.3024 8.80525 10.7676 9.01344C10.3201 9.17774 9.91557 9.44108 9.58419 9.78378C9.24122 10.1151 8.97751 10.5197 8.81276 10.9672C8.60456 11.5041 8.48951 12.0794 8.45006 12.9374C8.39308 14.1472 8.38541 14.5701 8.38541 17.3523C8.38541 20.0644 8.39308 20.506 8.44896 21.7672C8.48951 22.6252 8.60456 23.2027 8.81166 23.7363C8.99795 24.213 9.2171 24.556 9.5809 24.9198C9.95018 25.288 10.2932 25.5082 10.7643 25.6901C11.3057 25.8994 11.882 26.0156 12.7367 26.055C13.9465 26.112 14.3695 26.1186 17.1516 26.1186C19.8637 26.1186 20.3053 26.1109 21.5665 26.055C22.4234 26.0145 22.9998 25.8994 23.5357 25.6923C23.9827 25.5272 24.3871 25.264 24.7191 24.922C25.0884 24.5538 25.3086 24.2108 25.4905 23.7385C25.6987 23.1994 25.8149 22.623 25.8543 21.7661C25.9113 20.5575 25.9179 20.1334 25.9179 17.3523C25.9179 14.6414 25.9102 14.1987 25.8543 12.9374C25.8138 12.0805 25.6976 11.502 25.4905 10.9672C25.3253 10.5202 25.0621 10.1158 24.7202 9.78378C24.389 9.44063 23.9844 9.1769 23.5367 9.01235C22.9998 8.80415 22.4234 8.68909 21.5665 8.64965C20.3579 8.59266 19.9349 8.58609 17.1516 8.58609M17.1516 6.39453C20.1289 6.39453 20.5003 6.40549 21.6695 6.46028C22.8354 6.51507 23.631 6.69806 24.329 6.96982C25.0522 7.24814 25.6615 7.62509 26.2707 8.23325C26.8279 8.78102 27.2591 9.44363 27.5341 10.175C27.8048 10.873 27.9889 11.6685 28.0437 12.8355C28.0952 14.0036 28.1094 14.3751 28.1094 17.3523C28.1094 20.3296 28.0985 20.701 28.0437 21.8691C27.9889 23.0361 27.8048 23.8306 27.5341 24.5297C27.2598 25.2614 26.8286 25.9242 26.2707 26.4714C25.7228 27.0284 25.0602 27.4595 24.329 27.7348C23.631 28.0055 22.8354 28.1896 21.6695 28.2444C20.5003 28.2959 20.1289 28.3101 17.1516 28.3101C14.1744 28.3101 13.8029 28.2992 12.6337 28.2444C11.4678 28.1896 10.6734 28.0055 9.97429 27.7348C9.24266 27.4603 8.57994 27.0291 8.03257 26.4714C7.47529 25.9237 7.04413 25.2611 6.76913 24.5297C6.49738 23.8317 6.31438 23.0361 6.25959 21.8691C6.207 20.701 6.19385 20.3296 6.19385 17.3523C6.19385 14.3751 6.20481 14.0036 6.25959 12.8355C6.31438 11.6685 6.49738 10.8741 6.76913 10.175C7.04334 9.44319 7.4746 8.78039 8.03257 8.23325C8.58009 7.67575 9.24277 7.24456 9.97429 6.96982C10.6723 6.69806 11.4667 6.51507 12.6337 6.46028C13.804 6.40878 14.1755 6.39453 17.1527 6.39453" fill="#FBAEB4"/>
</g>
<defs>
<filter id="filter0_b_71_1054" x="-39.9978" y="-39.498" width="113" height="113" filterUnits="userSpaceOnUse" color-interpolation-filters="sRGB">
<feFlood flood-opacity="0" result="BackgroundImageFix"/>
<feGaussianBlur in="BackgroundImageFix" stdDeviation="20"/>
<feComposite in2="SourceAlpha" operator="in" result="effect1_backgroundBlur_71_1054"/>
<feBlend mode="normal" in="SourceGraphic" in2="effect1_backgroundBlur_71_1054" result="shape"/>
</filter>
</defs>
</svg>
