<svg width="33" height="34" viewBox="0 0 33 34" fill="none" xmlns="http://www.w3.org/2000/svg">
<g filter="url(#filter0_b_71_1057)">
<rect x="0.00219727" y="0.501953" width="33" height="33" rx="8" fill="#023047"/>
<path d="M9.40353 25.1353V15.2153H12.3435V25.1353H9.40353ZM10.8635 13.7553C10.3702 13.7553 9.9702 13.6153 9.66353 13.3353C9.35687 13.0553 9.20353 12.6819 9.20353 12.2153C9.20353 11.7486 9.35687 11.3753 9.66353 11.0953C9.9702 10.8153 10.3702 10.6753 10.8635 10.6753C11.3569 10.6753 11.7569 10.8153 12.0635 11.0953C12.3702 11.3753 12.5235 11.7486 12.5235 12.2153C12.5235 12.6819 12.3702 13.0553 12.0635 13.3353C11.7569 13.6153 11.3569 13.7553 10.8635 13.7553ZM14.9309 25.1353V15.2153H17.3309L17.5309 16.4753H17.6109C18.0375 16.0753 18.5042 15.7286 19.0109 15.4353C19.5309 15.1286 20.1242 14.9753 20.7909 14.9753C21.8709 14.9753 22.6509 15.3353 23.1309 16.0553C23.6242 16.7619 23.8709 17.7353 23.8709 18.9753V25.1353H20.9309V19.3553C20.9309 18.6353 20.8309 18.1419 20.6309 17.8753C20.4442 17.6086 20.1375 17.4753 19.7109 17.4753C19.3375 17.4753 19.0175 17.5619 18.7509 17.7353C18.4842 17.8953 18.1909 18.1286 17.8709 18.4353V25.1353H14.9309Z" fill="#FBAEB4"/>
</g>
<defs>
<filter id="filter0_b_71_1057" x="-39.9978" y="-39.498" width="113" height="113" filterUnits="userSpaceOnUse" color-interpolation-filters="sRGB">
<feFlood flood-opacity="0" result="BackgroundImageFix"/>
<feGaussianBlur in="BackgroundImageFix" stdDeviation="20"/>
<feComposite in2="SourceAlpha" operator="in" result="effect1_backgroundBlur_71_1057"/>
<feBlend mode="normal" in="SourceGraphic" in2="effect1_backgroundBlur_71_1057" result="shape"/>
</filter>
</defs>
</svg>
