<svg width="305" height="59" viewBox="0 0 305 59" fill="none" xmlns="http://www.w3.org/2000/svg">
<path d="M18.1815 2.04773L24.4625 19.6011C25.2304 21.7571 27.2978 23.2142 29.5917 23.2142H74.4054C75.0552 23.2142 75.5278 23.8442 75.3309 24.4743L74.4448 27.3884C74.3169 27.792 73.9427 28.0775 73.5194 28.0775H35.3706C34.1695 28.0775 32.9684 28.432 32.0036 29.1506C30.0347 30.6372 29.3357 33.1772 30.1331 35.3726L35.2131 49.4803C35.9908 51.6363 38.0484 53.0835 40.3324 53.0835H41.563C42.2029 50.514 44.5263 48.6139 47.2829 48.6139C50.0394 48.6139 52.3628 50.514 53.0027 53.0736H61.9419C62.5916 50.514 64.9052 48.6139 67.6617 48.6139C70.4183 48.6139 72.7318 50.5041 73.3816 53.0441H75.7837C76.4532 53.0441 77.0537 52.6011 77.2604 51.9612L79.4263 45.0402C79.7414 44.0459 78.9932 43.0319 77.9496 43.0319L44.2113 43.0713C43.8076 43.0713 43.4335 42.8153 43.2957 42.4313L42.2029 39.3991C41.9765 38.7691 42.449 38.0996 43.1185 38.0996H77.5952C80.0072 38.0996 82.0943 36.554 82.8031 34.2503L87.0856 20.2509C87.5877 18.6068 87.2825 16.8052 86.2587 15.4171C85.2348 14.0388 83.6005 13.2118 81.8777 13.2118H34.2876C33.3918 13.2118 32.5943 12.6506 32.2891 11.804L28.43 1.02387C28.2035 0.413485 27.6227 0 26.9729 0H19.6287C18.5556 0 17.8074 1.06325 18.1716 2.06743L18.1815 2.04773Z" fill="#FF0000"/>
<path d="M63.2019 54.5111C63.2019 56.9821 65.2004 58.9806 67.6715 58.9806C70.1425 58.9806 72.1411 56.9821 72.1411 54.5111C72.1411 52.04 70.1425 50.0415 67.6715 50.0415C65.2004 50.0415 63.2019 52.04 63.2019 54.5111Z" fill="#023047"/>
<path d="M47.2928 58.9806C49.7613 58.9806 51.7624 56.9795 51.7624 54.5111C51.7624 52.0426 49.7613 50.0415 47.2928 50.0415C44.8243 50.0415 42.8232 52.0426 42.8232 54.5111C42.8232 56.9795 44.8243 58.9806 47.2928 58.9806Z" fill="#023047"/>
<path d="M20.8003 59.0004H38.4127C39.3479 59.0004 40.106 58.2423 40.106 57.3071C40.106 56.3718 39.3479 55.6138 38.4127 55.6138H20.8003C19.865 55.6138 19.1069 56.3718 19.1069 57.3071C19.1069 58.2423 19.865 59.0004 20.8003 59.0004Z" fill="#023047"/>
<path d="M8.57271 59.0004H15.0309C15.9662 59.0004 16.7243 58.2423 16.7243 57.3071C16.7243 56.3718 15.9662 55.6138 15.0309 55.6138H8.57271C7.63745 55.6138 6.87939 56.3718 6.87939 57.3071C6.87939 58.2423 7.63745 59.0004 8.57271 59.0004Z" fill="#023047"/>
<path d="M2.19332 59.0004H2.80372C3.73898 59.0004 4.49704 58.2423 4.49704 57.3071C4.49704 56.3718 3.73898 55.6138 2.80372 55.6138H2.19332C1.25806 55.6138 0.5 56.3718 0.5 57.3071C0.5 58.2423 1.25806 59.0004 2.19332 59.0004Z" fill="#023047"/>
<path d="M27.4748 53.4477H31.7672C32.7024 53.4477 33.4605 52.6896 33.4605 51.7544C33.4605 50.8191 32.7024 50.061 31.7672 50.061H27.4748C26.5395 50.061 25.7815 50.8191 25.7815 51.7544C25.7815 52.6896 26.5395 53.4477 27.4748 53.4477Z" fill="#023047"/>
<path d="M8.87789 53.4477H21.6959C22.6312 53.4477 23.3892 52.6896 23.3892 51.7544C23.3892 50.8191 22.6312 50.061 21.6959 50.061H8.87789C7.94263 50.061 7.18457 50.8191 7.18457 51.7544C7.18457 52.6896 7.94263 53.4477 8.87789 53.4477Z" fill="#023047"/>
<path d="M121.403 45.4805C111.947 45.4805 107.579 41.6405 107.579 34.5365V33.9125H114.635V34.3925C114.635 37.9445 115.931 38.9525 121.739 38.9525C125.819 38.9525 126.827 38.1365 126.827 35.9765C126.827 33.8165 126.347 33.0485 121.835 32.2805L116.171 31.2725C110.027 30.2165 107.435 27.0965 107.435 22.1045C107.435 17.2085 111.035 12.3605 120.251 12.3605C129.419 12.3605 133.259 17.1125 133.259 23.4965V23.8805H126.155V23.3525C126.155 19.9925 124.763 18.8885 120.011 18.8885C115.883 18.8885 114.587 19.8005 114.587 21.8165C114.587 23.8805 115.451 24.3605 119.195 25.0805L124.907 26.1845C131.675 27.4805 133.979 31.0325 133.979 35.7365C133.979 40.8725 130.523 45.4805 121.403 45.4805ZM147.776 45.0965C141.488 45.0965 138.464 42.7925 138.464 37.0805V26.8085H134.624V20.8565H138.656L140 15.2405H145.664V20.8565H152.48V26.8085H145.664V36.2645C145.664 38.3765 146.384 38.6165 149.504 38.6165H152.48V44.6165C151.328 44.8565 149.456 45.0965 147.776 45.0965ZM166.388 45.4805C158.084 45.4805 154.292 40.6325 154.292 33.0005C154.292 25.2725 158.9 20.3765 166.436 20.3765C173.684 20.3765 177.956 24.6965 177.956 30.9845C177.956 32.3285 177.764 33.7205 177.62 34.5365H161.06C161.204 37.8965 162.548 39.2405 166.484 39.2405C169.364 39.2405 170.612 38.6165 170.612 37.1285V36.8405H177.716V37.3205C177.716 42.4565 173.3 45.4805 166.388 45.4805ZM166.196 26.2805C162.74 26.2805 161.396 27.6245 161.108 30.1685H171.044C171.188 27.6725 169.556 26.2805 166.196 26.2805ZM188.604 45.0005H181.452V12.8405H188.604V45.0005ZM200.183 45.0005H193.031V20.8565H199.703V25.0805H199.991C201.287 22.3445 203.783 20.3765 207.911 20.3765C212.039 20.3765 214.535 22.2485 215.735 25.0805H215.975C217.319 22.4405 219.719 20.3765 224.183 20.3765C230.423 20.3765 232.967 24.5525 232.967 29.6885V45.0005H225.767V31.1285C225.767 27.7685 224.759 26.5685 221.255 26.5685C217.991 26.5685 216.599 27.6245 216.599 31.1285V45.0005H209.399V31.1285C209.399 27.7685 208.343 26.5685 204.887 26.5685C201.623 26.5685 200.183 27.6245 200.183 31.0325V45.0005ZM243.812 45.4805C239.54 45.4805 236.228 43.2245 236.228 38.8565C236.228 35.1125 238.916 32.8085 243.908 32.0405L252.164 30.7925V30.0245C252.164 27.1925 250.628 26.6645 247.796 26.6645C244.868 26.6645 243.716 27.4805 243.716 29.9285V30.4565H236.852V29.9285C236.852 24.1685 241.316 20.3765 248.132 20.3765C255.236 20.3765 258.98 24.2645 258.98 30.6965V45.0005H252.308V41.7365H252.02C250.724 43.5125 248.276 45.4805 243.812 45.4805ZM243.092 38.2805C243.092 39.5765 244.1 40.0085 246.212 40.0085C249.14 40.0085 252.164 39.2405 252.164 35.4965L245.252 36.5525C243.764 36.7925 243.092 37.2725 243.092 38.2805ZM270.401 45.0005H263.249V20.8565H269.921V24.7445H270.209C271.409 22.2965 273.569 20.3765 276.977 20.3765C282.017 20.3765 283.889 24.1205 283.889 28.9685V31.1765H276.737V29.8805C276.737 27.2885 275.921 26.4725 273.665 26.4725C271.457 26.4725 270.401 27.2405 270.401 29.8805V45.0005ZM298.292 45.0965C292.004 45.0965 288.98 42.7925 288.98 37.0805V26.8085H285.14V20.8565H289.172L290.516 15.2405H296.18V20.8565H302.996V26.8085H296.18V36.2645C296.18 38.3765 296.9 38.6165 300.02 38.6165H302.996V44.6165C301.844 44.8565 299.972 45.0965 298.292 45.0965Z" fill="#023047"/>
</svg>
