<svg width="195" height="40" viewBox="0 0 195 40" fill="none" xmlns="http://www.w3.org/2000/svg">
<path d="M8.91159 6.16356L12.0773 15.0107C12.4644 16.0974 13.5064 16.8318 14.6625 16.8318H37.2494C37.5769 16.8318 37.815 17.1494 37.7158 17.4669L37.2692 18.9357C37.2047 19.1391 37.0162 19.283 36.8028 19.283H17.5752C16.9698 19.283 16.3644 19.4616 15.8782 19.8239C14.8858 20.5731 14.5335 21.8533 14.9354 22.9598L17.4958 30.0703C17.8878 31.157 18.9248 31.8864 20.076 31.8864H20.6963C21.0188 30.5913 22.1898 29.6337 23.5792 29.6337C24.9685 29.6337 26.1395 30.5913 26.4621 31.8814H30.9675C31.295 30.5913 32.4611 29.6337 33.8504 29.6337C35.2398 29.6337 36.4058 30.5864 36.7333 31.8665H37.944C38.2815 31.8665 38.5841 31.6433 38.6883 31.3207L39.78 27.8325C39.9388 27.3313 39.5616 26.8202 39.0357 26.8202L22.031 26.8401C21.8276 26.8401 21.639 26.7111 21.5696 26.5175L21.0188 24.9893C20.9047 24.6717 21.1428 24.3343 21.4802 24.3343H38.8571C40.0727 24.3343 41.1247 23.5553 41.4819 22.3942L43.6404 15.3382C43.8934 14.5096 43.7396 13.6015 43.2236 12.9019C42.7075 12.2072 41.8838 11.7904 41.0155 11.7904H17.0294C16.5778 11.7904 16.1759 11.5076 16.0221 11.0809L14.077 5.64751C13.9629 5.33987 13.6701 5.13147 13.3426 5.13147H9.64099C9.10014 5.13147 8.72303 5.66736 8.90662 6.17348L8.91159 6.16356Z" fill="#FF0000"/>
<path d="M31.6028 32.6059C31.6028 33.8513 32.6101 34.8586 33.8555 34.8586C35.101 34.8586 36.1083 33.8513 36.1083 32.6059C36.1083 31.3604 35.101 30.3531 33.8555 30.3531C32.6101 30.3531 31.6028 31.3604 31.6028 32.6059Z" fill="#023047"/>
<path d="M23.5843 34.8586C24.8284 34.8586 25.837 33.85 25.837 32.6059C25.837 31.3617 24.8284 30.3531 23.5843 30.3531C22.3401 30.3531 21.3315 31.3617 21.3315 32.6059C21.3315 33.85 22.3401 34.8586 23.5843 34.8586Z" fill="#023047"/>
<path d="M10.2316 34.8685H19.1086C19.58 34.8685 19.962 34.4865 19.962 34.0151C19.962 33.5437 19.58 33.1616 19.1086 33.1616H10.2316C9.76025 33.1616 9.37817 33.5437 9.37817 34.0151C9.37817 34.4865 9.76025 34.8685 10.2316 34.8685Z" fill="#023047"/>
<path d="M4.06879 34.8685H7.32384C7.79523 34.8685 8.1773 34.4865 8.1773 34.0151C8.1773 33.5437 7.79523 33.1616 7.32384 33.1616H4.06879C3.5974 33.1616 3.21533 33.5437 3.21533 34.0151C3.21533 34.4865 3.5974 34.8685 4.06879 34.8685Z" fill="#023047"/>
<path d="M0.853459 34.8685H1.16111C1.6325 34.8685 2.01457 34.4865 2.01457 34.0151C2.01457 33.5437 1.6325 33.1616 1.16111 33.1616H0.853459C0.382072 33.1616 0 33.5437 0 34.0151C0 34.4865 0.382072 34.8685 0.853459 34.8685Z" fill="#023047"/>
<path d="M13.5959 32.07H15.7593C16.2307 32.07 16.6128 31.6879 16.6128 31.2165C16.6128 30.7451 16.2307 30.3631 15.7593 30.3631H13.5959C13.1245 30.3631 12.7424 30.7451 12.7424 31.2165C12.7424 31.6879 13.1245 32.07 13.5959 32.07Z" fill="#023047"/>
<path d="M4.2226 32.07H10.6831C11.1545 32.07 11.5365 31.6879 11.5365 31.2165C11.5365 30.7451 11.1545 30.3631 10.6831 30.3631H4.2226C3.75121 30.3631 3.36914 30.7451 3.36914 31.2165C3.36914 31.6879 3.75121 32.07 4.2226 32.07Z" fill="#023047"/>
<path d="M72.48 30.82C66.176 30.82 63.264 28.26 63.264 23.524V23.108H67.968V23.428C67.968 25.796 68.832 26.468 72.704 26.468C75.424 26.468 76.096 25.924 76.096 24.484C76.096 23.044 75.776 22.532 72.768 22.02L68.992 21.348C64.896 20.644 63.168 18.564 63.168 15.236C63.168 11.972 65.568 8.74 71.712 8.74C77.824 8.74 80.384 11.908 80.384 16.164V16.42H75.648V16.068C75.648 13.828 74.72 13.092 71.552 13.092C68.8 13.092 67.936 13.7 67.936 15.044C67.936 16.42 68.512 16.74 71.008 17.22L74.816 17.956C79.328 18.82 80.864 21.188 80.864 24.324C80.864 27.748 78.56 30.82 72.48 30.82ZM90.0623 30.564C85.8703 30.564 83.8543 29.028 83.8543 25.22V18.372H81.2943V14.404H83.9823L84.8783 10.66H88.6543V14.404H93.1983V18.372H88.6543V24.676C88.6543 26.084 89.1343 26.244 91.2143 26.244H93.1983V30.244C92.4303 30.404 91.1823 30.564 90.0623 30.564ZM102.47 30.82C96.934 30.82 94.406 27.588 94.406 22.5C94.406 17.348 97.478 14.084 102.502 14.084C107.334 14.084 110.182 16.964 110.182 21.156C110.182 22.052 110.054 22.98 109.958 23.524H98.918C99.014 25.764 99.91 26.66 102.534 26.66C104.454 26.66 105.286 26.244 105.286 25.252V25.06H110.022V25.38C110.022 28.804 107.078 30.82 102.47 30.82ZM102.342 18.02C100.038 18.02 99.142 18.916 98.95 20.612H105.574C105.67 18.948 104.582 18.02 102.342 18.02ZM117.281 30.5H112.513V9.06H117.281V30.5ZM125 30.5H120.232V14.404H124.68V17.22H124.872C125.736 15.396 127.4 14.084 130.152 14.084C132.904 14.084 134.568 15.332 135.368 17.22H135.528C136.424 15.46 138.024 14.084 141 14.084C145.16 14.084 146.856 16.868 146.856 20.292V30.5H142.056V21.252C142.056 19.012 141.384 18.212 139.048 18.212C136.872 18.212 135.944 18.916 135.944 21.252V30.5H131.144V21.252C131.144 19.012 130.44 18.212 128.136 18.212C125.96 18.212 125 18.916 125 21.188V30.5ZM154.086 30.82C151.238 30.82 149.03 29.316 149.03 26.404C149.03 23.908 150.822 22.372 154.15 21.86L159.654 21.028V20.516C159.654 18.628 158.63 18.276 156.742 18.276C154.79 18.276 154.022 18.82 154.022 20.452V20.804H149.446V20.452C149.446 16.612 152.422 14.084 156.966 14.084C161.702 14.084 164.198 16.676 164.198 20.964V30.5H159.75V28.324H159.558C158.694 29.508 157.062 30.82 154.086 30.82ZM153.606 26.02C153.606 26.884 154.278 27.172 155.686 27.172C157.638 27.172 159.654 26.66 159.654 24.164L155.046 24.868C154.054 25.028 153.606 25.348 153.606 26.02ZM171.813 30.5H167.045V14.404H171.493V16.996H171.685C172.485 15.364 173.925 14.084 176.197 14.084C179.557 14.084 180.805 16.58 180.805 19.812V21.284H176.037V20.42C176.037 18.692 175.493 18.148 173.989 18.148C172.517 18.148 171.813 18.66 171.813 20.42V30.5ZM190.406 30.564C186.214 30.564 184.198 29.028 184.198 25.22V18.372H181.638V14.404H184.326L185.222 10.66H188.998V14.404H193.542V18.372H188.998V24.676C188.998 26.084 189.478 26.244 191.558 26.244H193.542V30.244C192.774 30.404 191.526 30.564 190.406 30.564Z" fill="#023047"/>
</svg>
