<svg width="25" height="25" viewBox="0 0 25 25" fill="none" xmlns="http://www.w3.org/2000/svg">
<g clip-path="url(#clip0_335_217)">
<path d="M3.125 0C2.2962 0 1.50134 0.32924 0.915291 0.915291C0.32924 1.50134 0 2.2962 0 3.125L0 21.875C0 22.7038 0.32924 23.4987 0.915291 24.0847C1.50134 24.6708 2.2962 25 3.125 25H21.875C22.7038 25 23.4987 24.6708 24.0847 24.0847C24.6708 23.4987 25 22.7038 25 21.875V3.125C25 2.2962 24.6708 1.50134 24.0847 0.915291C23.4987 0.32924 22.7038 0 21.875 0L3.125 0ZM13.2812 7.03125V11.7188H17.9688C18.176 11.7188 18.3747 11.8011 18.5212 11.9476C18.6677 12.0941 18.75 12.2928 18.75 12.5C18.75 12.7072 18.6677 12.9059 18.5212 13.0524C18.3747 13.1989 18.176 13.2812 17.9688 13.2812H13.2812V17.9688C13.2812 18.176 13.1989 18.3747 13.0524 18.5212C12.9059 18.6677 12.7072 18.75 12.5 18.75C12.2928 18.75 12.0941 18.6677 11.9476 18.5212C11.8011 18.3747 11.7188 18.176 11.7188 17.9688V13.2812H7.03125C6.82405 13.2812 6.62534 13.1989 6.47882 13.0524C6.33231 12.9059 6.25 12.7072 6.25 12.5C6.25 12.2928 6.33231 12.0941 6.47882 11.9476C6.62534 11.8011 6.82405 11.7188 7.03125 11.7188H11.7188V7.03125C11.7188 6.82405 11.8011 6.62534 11.9476 6.47882C12.0941 6.33231 12.2928 6.25 12.5 6.25C12.7072 6.25 12.9059 6.33231 13.0524 6.47882C13.1989 6.62534 13.2812 6.82405 13.2812 7.03125Z" fill="#5D9FBE"/>
</g>
<defs>
<clipPath id="clip0_335_217">
<rect width="25" height="25" fill="white"/>
</clipPath>
</defs>
</svg>
