<svg width="16" height="16" viewBox="0 0 16 16" fill="none" xmlns="http://www.w3.org/2000/svg">
<path d="M11.2683 10.1968C12.1761 8.95791 12.5826 7.42194 12.4067 5.89615C12.2307 4.37036 11.4853 2.96727 10.3194 1.9676C9.15351 0.967925 7.65322 0.445386 6.11867 0.504523C4.58412 0.56366 3.12849 1.20011 2.04298 2.28655C0.957473 3.37298 0.322152 4.82928 0.264122 6.36409C0.206091 7.89889 0.72963 9.39902 1.73 10.5643C2.73036 11.7297 4.13378 12.4743 5.65948 12.6491C7.18518 12.824 8.72065 12.4163 9.95868 11.5075H9.95774C9.98524 11.545 10.0159 11.581 10.0496 11.6153L13.6589 15.2251C13.8346 15.401 14.0731 15.4999 14.3218 15.5C14.5705 15.5001 14.809 15.4014 14.9849 15.2256C15.1608 15.0498 15.2597 14.8113 15.2598 14.5625C15.2599 14.3138 15.1611 14.0753 14.9854 13.8993L11.3761 10.2896C11.3426 10.2556 11.3066 10.2252 11.2683 10.1968ZM11.5102 6.59264C11.5102 7.26984 11.3768 7.94041 11.1177 8.56606C10.8586 9.19171 10.4788 9.76019 10 10.239C9.52123 10.7179 8.95283 11.0977 8.32727 11.3569C7.7017 11.616 7.03123 11.7494 6.35413 11.7494C5.67703 11.7494 5.00655 11.616 4.38099 11.3569C3.75543 11.0977 3.18703 10.7179 2.70825 10.239C2.22946 9.76019 1.84967 9.19171 1.59055 8.56606C1.33144 7.94041 1.19807 7.26984 1.19807 6.59264C1.19807 5.22498 1.7413 3.91333 2.70825 2.94625C3.67519 1.97916 4.98666 1.43586 6.35413 1.43586C7.7216 1.43586 9.03306 1.97916 10 2.94625C10.967 3.91333 11.5102 5.22498 11.5102 6.59264Z" fill="#848484"/>
</svg>
