<svg width="78" height="33" viewBox="0 0 78 33" fill="none" xmlns="http://www.w3.org/2000/svg">
<rect width="78" height="33" rx="6" fill="#5D9FBE"/>
<path d="M20.1459 23H18.0059V20.22H10.2659V18.72L17.6459 9.6H20.1459V18.28H22.2259V20.22H20.1459V23ZM13.0259 18.28H18.0059V12.26H17.8459L13.0259 18.12V18.28ZM27.4576 23H25.2976V12.8H22.4776V11.26H22.9976C24.2576 11.26 24.9976 10.8 25.5576 9.6H27.4576V23ZM39.1896 18.04H32.8096V16.2H39.1896V18.04ZM53.5638 23H51.4238V20.22H43.6838V18.72L51.0638 9.6H53.5638V18.28H55.6438V20.22H53.5638V23ZM46.4438 18.28H51.4238V12.26H51.2638L46.4438 18.12V18.28ZM62.0234 23.2C58.2034 23.2 56.7434 21.46 56.7434 18.9V18.58H58.8634V18.88C58.8634 20.56 59.4234 21.22 62.0634 21.22C64.1834 21.22 65.0234 20.7 65.0234 19.14C65.0234 17.46 64.2834 16.96 62.4234 16.96H59.7434V15.16H62.1234C63.8834 15.16 64.5634 14.72 64.5634 13.32C64.5634 11.92 63.7634 11.38 61.8834 11.38C59.5634 11.38 58.8634 12.04 58.8634 13.72V13.88H56.7434V13.7C56.7434 11.14 58.5434 9.4 61.9034 9.4C64.9234 9.4 66.7234 10.64 66.7234 12.98C66.7234 14.52 65.9434 15.66 64.2434 15.9V15.98C66.0834 16.24 67.2034 17.44 67.2034 19.36C67.2034 21.94 65.1234 23.2 62.0234 23.2Z" fill="white"/>
</svg>
