<svg width="78" height="33" viewBox="0 0 78 33" fill="none" xmlns="http://www.w3.org/2000/svg">
<rect width="78" height="33" rx="6" fill="#5D9FBE"/>
<path d="M26.5671 23H24.4071V9.6H30.1671C33.1271 9.6 34.9871 11.06 34.9871 13.6C34.9871 15.82 33.6271 17.16 31.2671 17.28V17.44C32.2471 17.76 32.8271 18.36 33.3271 19.28L35.3271 23H32.8271L30.9271 19.54C30.3071 18.38 29.7471 17.84 28.1471 17.84H26.5671V23ZM26.5671 11.54V16.06H30.4271C32.1671 16.06 32.8271 15.42 32.8271 13.8C32.8271 12.22 32.1671 11.54 30.4271 11.54H26.5671ZM45.8555 23H36.5555V9.6H38.7155V21.06H45.8555V23ZM50.029 23H47.889V11.54H43.329V9.6H54.589V11.54H50.029V23Z" fill="white"/>
</svg>
