<svg width="78" height="33" viewBox="0 0 78 33" fill="none" xmlns="http://www.w3.org/2000/svg">
<rect width="78" height="33" rx="6" fill="#5D9FBE"/>
<path d="M10.4343 23H8.2743V9.6H11.3343L14.3943 16.96L15.5743 20.16H15.7343L16.8943 16.96L19.8943 9.6H22.9543V23H20.8143V15.08L20.8943 12.84H20.7543L19.9143 15.08L16.9143 22.2H14.3143L11.2943 15.08L10.4943 12.84H10.3143L10.4343 15.08V23ZM25.8484 23.4H23.6684L30.8684 9.2H33.0484L25.8484 23.4ZM35.9035 23H33.3635L37.9235 16.32V16.16L33.3635 9.6H35.9435L39.5835 14.82H39.7435L43.3435 9.6H45.8835L41.3235 16.16V16.32L45.8835 23H43.3035L39.6635 17.66H39.5235L35.9035 23ZM49.6926 23H47.1526L51.7126 16.32V16.16L47.1526 9.6H49.7326L53.3726 14.82H53.5326L57.1326 9.6H59.6726L55.1126 16.16V16.32L59.6726 23H57.0926L53.4526 17.66H53.3126L49.6926 23ZM70.4845 23H61.1845V9.6H63.3445V21.06H70.4845V23Z" fill="white"/>
</svg>
