<svg width="28" height="14" viewBox="0 0 28 14" fill="none" xmlns="http://www.w3.org/2000/svg">
<path d="M24.9656 0.872102L24.9655 0.872131L14.0003 10.2713L3.03543 0.872509C3.03536 0.872449 3.03529 0.872388 3.03522 0.872327C2.89328 0.750425 2.72868 0.657021 2.55243 0.594339C2.37608 0.531624 2.18911 0.5 2.00167 0.5C1.81423 0.5 1.62726 0.531624 1.45091 0.594339C1.27457 0.657052 1.10989 0.750518 0.967909 0.872509L24.9656 0.872102ZM24.9656 0.872102C25.2509 0.627553 25.6235 0.500449 25.9989 0.500449C26.3742 0.500449 26.7468 0.627553 27.0321 0.872102C27.3199 1.1187 27.5 1.47121 27.5 1.85846C27.5 2.2457 27.3199 2.59821 27.0321 2.84481L15.034 13.1275L24.9656 0.872102ZM0.968858 2.84521C0.968776 2.84514 0.968695 2.84507 0.968613 2.84501L14.7082 12.7482C14.6153 12.828 14.505 12.8914 14.3835 12.9346C14.262 12.9778 14.1318 13 14.0003 13C13.8687 13 13.7385 12.9778 13.617 12.9346C13.4956 12.8914 13.3852 12.828 13.2923 12.7482L12.967 13.1279L12.9666 13.1276C12.9666 13.1275 12.9665 13.1275 12.9665 13.1275L0.968858 2.84521Z" fill="white" stroke="white"/>
</svg>
