<svg width="15" height="16" viewBox="0 0 15 16" fill="none" xmlns="http://www.w3.org/2000/svg">
<g clip-path="url(#clip0_22_261)">
<path d="M11.615 14.978C11.9769 15.1637 12.3875 14.8384 12.3144 14.423L11.5363 9.98866L14.8391 6.84241C15.1475 6.54804 14.9872 6.00991 14.5738 5.95179L9.98189 5.29929L7.93439 1.24272C7.7497 0.8771 7.25001 0.8771 7.06533 1.24272L5.01783 5.29929L0.425952 5.95179C0.0125141 6.00991 -0.147799 6.54804 0.161576 6.84241L3.46345 9.98866L2.68533 14.423C2.6122 14.8384 3.02283 15.1637 3.3847 14.978L7.50126 12.863L11.615 14.978Z" fill="#FB8500"/>
</g>
<defs>
<clipPath id="clip0_22_261">
<rect width="15" height="14.063" fill="white" transform="matrix(-1 0 0 1 15 0.968506)"/>
</clipPath>
</defs>
</svg>
